<svg width="9" height="9" viewBox="0 0 9 9" fill="none" xmlns="http://www.w3.org/2000/svg">
<path d="M5.7969 4.4719L8.6719 1.59686C9.0344 1.23436 9.0344 0.634363 8.6719 0.271875C8.3094 -0.090625 7.7094 -0.090625 7.3469 0.271875L4.4719 3.1469L1.59686 0.271875C1.23436 -0.090625 0.634363 -0.090625 0.271875 0.271875C-0.090625 0.634363 -0.090625 1.23436 0.271875 1.59686L3.1469 4.4719L0.271875 7.3469C-0.090625 7.7094 -0.090625 8.3094 0.271875 8.6719C0.459375 8.8594 0.696862 8.9469 0.934362 8.9469C1.17186 8.9469 1.40936 8.8594 1.59686 8.6719L4.4719 5.7969L7.3469 8.6719C7.5344 8.8594 7.7719 8.9469 8.0094 8.9469C8.2469 8.9469 8.4844 8.8594 8.6719 8.6719C9.0344 8.3094 9.0344 7.7094 8.6719 7.3469L5.7969 4.4719Z" fill="black"/>
</svg>
