<svg width="20" height="20" viewBox="0 0 20 20" fill="none" xmlns="http://www.w3.org/2000/svg">
<g clip-path="url(#clip0_411_268)">
<rect width="20" height="20" fill="white"/>
<path d="M10 18.75C7.67936 18.75 5.45376 17.8281 3.81282 16.1872C2.17187 14.5462 1.25 12.3206 1.25 10C1.25 7.67936 2.17187 5.45376 3.81282 3.81282C5.45376 2.17187 7.67936 1.25 10 1.25C12.3206 1.25 14.5462 2.17187 16.1872 3.81282C17.8281 5.45376 18.75 7.67936 18.75 10C18.75 12.3206 17.8281 14.5462 16.1872 16.1872C14.5462 17.8281 12.3206 18.75 10 18.75ZM10 20C12.6522 20 15.1957 18.9464 17.0711 17.0711C18.9464 15.1957 20 12.6522 20 10C20 7.34784 18.9464 4.8043 17.0711 2.92893C15.1957 1.05357 12.6522 0 10 0C7.34784 0 4.8043 1.05357 2.92893 2.92893C1.05357 4.8043 0 7.34784 0 10C0 12.6522 1.05357 15.1957 2.92893 17.0711C4.8043 18.9464 7.34784 20 10 20Z" fill="#142B56"/>
<path d="M11.3709 8.02667L8.50844 8.38542L8.40594 8.86042L8.96844 8.96417C9.33594 9.05167 9.40844 9.18417 9.32844 9.55042L8.40594 13.8854C8.16344 15.0067 8.53719 15.5342 9.41594 15.5342C10.0972 15.5342 10.8884 15.2192 11.2472 14.7867L11.3572 14.2667C11.1072 14.4867 10.7422 14.5742 10.4997 14.5742C10.1559 14.5742 10.0309 14.3329 10.1197 13.9079L11.3709 8.02667ZM11.4584 5.41667C11.4584 5.74819 11.3267 6.06613 11.0923 6.30055C10.8579 6.53498 10.54 6.66667 10.2084 6.66667C9.87692 6.66667 9.55897 6.53498 9.32455 6.30055C9.09013 6.06613 8.95844 5.74819 8.95844 5.41667C8.95844 5.08515 9.09013 4.76721 9.32455 4.53279C9.55897 4.29837 9.87692 4.16667 10.2084 4.16667C10.54 4.16667 10.8579 4.29837 11.0923 4.53279C11.3267 4.76721 11.4584 5.08515 11.4584 5.41667Z" fill="#142B56"/>
</g>
<defs>
<clipPath id="clip0_411_268">
<rect width="20" height="20" fill="white"/>
</clipPath>
</defs>
</svg>
