<svg width="61" height="50" viewBox="0 0 61 50" fill="none" xmlns="http://www.w3.org/2000/svg">
<g clip-path="url(#clip0_411_145)">
<path d="M30.4645 26.7211C38.7312 26.4193 46.9973 26.1169 55.2628 25.8151C53.7213 23.2319 53.3358 20.9722 50.3895 20.5825C45.9798 20.0012 41.5701 19.418 37.1598 18.8349C28.6058 17.705 20.0494 16.5751 11.4941 15.4459C12.2615 16.7013 24.2315 26.9481 30.4645 26.7211Z" fill="white"/>
<path d="M0 -0.000427246C2.6785 4.48752 16.2351 14.268 20.1013 14.7714C30.6726 16.1511 41.242 17.5296 51.8127 18.9075C49.7429 15.4399 49.2629 13.1251 45.5224 12.1301C40.0909 10.6823 34.6571 9.23398 29.225 7.78685C19.4834 5.19192 9.74168 2.59574 0 -0.000427246Z" fill="white"/>
<path d="M38.4959 34.8924C44.8478 33.5201 51.1998 32.1472 57.5529 30.7736C56.3158 28.7044 56.3122 27.4595 53.9984 27.5646C50.2421 27.7334 46.4869 27.9041 42.7312 28.073C35.8119 28.3859 28.8927 28.7 21.9741 29.0117C22.7519 29.8565 33.5135 35.9685 38.4959 34.8924Z" fill="white"/>
<path d="M53.4861 49.7384C56.9783 47.4385 57.9159 44.9635 59.9027 41.1998C62.1298 36.9796 60.6694 36.3488 58.1819 32.1732C57.9275 31.7477 54.6182 32.3166 54.2455 32.7322C53.7911 33.2381 53.4843 36.1058 53.4562 36.7496C53.2622 41.0792 53.6788 45.4094 53.4861 49.7384Z" fill="white"/>
<path d="M52.6734 33.1855C50.3584 33.6858 46.815 33.3036 46.2245 35.8009C45.387 39.3482 45.1594 42.8973 44.3213 46.4447C49.9613 45.0786 52.477 38.2164 52.6734 33.1855Z" fill="white"/>
<path d="M45.5461 34.8392C39.9658 36.047 40.083 37.6908 37.6899 42.9901C41.4841 42.6252 45.0246 38.4385 45.5461 34.8392Z" fill="white"/>
</g>
<defs>
<clipPath id="clip0_411_145">
<rect width="61" height="49.7385" fill="white"/>
</clipPath>
</defs>
</svg>
