<svg width="16" height="13" viewBox="0 0 16 13" fill="none" xmlns="http://www.w3.org/2000/svg">
<path d="M12.7285 1.13776C12.9839 0.886297 13.3236 0.747281 13.6761 0.75004C14.0287 0.7528 14.3664 0.897119 14.618 1.15255C14.8696 1.40797 15.0154 1.75453 15.0248 2.11908C15.0341 2.48364 14.9061 2.83768 14.6679 3.10651L7.43603 12.4628C7.31168 12.6013 7.16159 12.7125 6.99475 12.7897C6.8279 12.8669 6.64773 12.9085 6.46499 12.912C6.28225 12.9155 6.10071 12.8808 5.93122 12.8101C5.76172 12.7393 5.60776 12.634 5.47853 12.5003L0.682659 7.53901C0.549102 7.41026 0.441979 7.25501 0.367681 7.08252C0.293383 6.91002 0.253432 6.7238 0.250212 6.53499C0.246991 6.34617 0.280567 6.15861 0.348937 5.98351C0.417306 5.80841 0.519068 5.64934 0.648152 5.51581C0.777236 5.38227 0.930997 5.277 1.10026 5.20628C1.26953 5.13555 1.45083 5.10082 1.63336 5.10415C1.81588 5.10748 1.99589 5.14881 2.16263 5.22567C2.32938 5.30253 2.47946 5.41334 2.60391 5.55151L6.39928 9.47588L12.6941 1.17901C12.7054 1.16457 12.7175 1.1508 12.7303 1.13776H12.7285Z" fill="white"/>
</svg>
