<svg width="16" height="16" viewBox="0 0 16 16" fill="none" xmlns="http://www.w3.org/2000/svg">
<g clip-path="url(#clip0_545_640)">
<path d="M9.66683 6.66665C9.1135 6.66665 8.66683 6.21998 8.66683 5.66665V2.33331C8.66683 1.77998 9.1135 1.33331 9.66683 1.33331C10.2202 1.33331 10.6668 1.77998 10.6668 2.33331V5.66665C10.6668 6.21998 10.2202 6.66665 9.66683 6.66665Z" stroke="#344054" stroke-width="1.5" stroke-linecap="round" stroke-linejoin="round"/>
<path d="M13.6668 6.66665H12.6668V5.66665C12.6668 5.11331 13.1135 4.66665 13.6668 4.66665C14.2202 4.66665 14.6668 5.11331 14.6668 5.66665C14.6668 6.21998 14.2202 6.66665 13.6668 6.66665Z" stroke="#344054" stroke-width="1.5" stroke-linecap="round" stroke-linejoin="round"/>
<path d="M6.3335 9.33331C6.88683 9.33331 7.3335 9.77998 7.3335 10.3333V13.6666C7.3335 14.22 6.88683 14.6666 6.3335 14.6666C5.78016 14.6666 5.3335 14.22 5.3335 13.6666V10.3333C5.3335 9.77998 5.78016 9.33331 6.3335 9.33331Z" stroke="#344054" stroke-width="1.5" stroke-linecap="round" stroke-linejoin="round"/>
<path d="M2.3335 9.33331H3.3335V10.3333C3.3335 10.8866 2.88683 11.3333 2.3335 11.3333C1.78016 11.3333 1.3335 10.8866 1.3335 10.3333C1.3335 9.77998 1.78016 9.33331 2.3335 9.33331Z" stroke="#344054" stroke-width="1.5" stroke-linecap="round" stroke-linejoin="round"/>
<path d="M9.3335 9.66665C9.3335 9.11331 9.78016 8.66665 10.3335 8.66665H13.6668C14.2202 8.66665 14.6668 9.11331 14.6668 9.66665C14.6668 10.22 14.2202 10.6666 13.6668 10.6666H10.3335C9.78016 10.6666 9.3335 10.22 9.3335 9.66665Z" stroke="#344054" stroke-width="1.5" stroke-linecap="round" stroke-linejoin="round"/>
<path d="M10.3335 12.6666H9.3335V13.6666C9.3335 14.22 9.78016 14.6666 10.3335 14.6666C10.8868 14.6666 11.3335 14.22 11.3335 13.6666C11.3335 13.1133 10.8868 12.6666 10.3335 12.6666Z" stroke="#344054" stroke-width="1.5" stroke-linecap="round" stroke-linejoin="round"/>
<path d="M6.66683 6.33331C6.66683 5.77998 6.22016 5.33331 5.66683 5.33331H2.3335C1.78016 5.33331 1.3335 5.77998 1.3335 6.33331C1.3335 6.88665 1.78016 7.33331 2.3335 7.33331H5.66683C6.22016 7.33331 6.66683 6.88665 6.66683 6.33331Z" stroke="#344054" stroke-width="1.5" stroke-linecap="round" stroke-linejoin="round"/>
<path d="M5.66683 3.33331H6.66683V2.33331C6.66683 1.77998 6.22016 1.33331 5.66683 1.33331C5.1135 1.33331 4.66683 1.77998 4.66683 2.33331C4.66683 2.88665 5.1135 3.33331 5.66683 3.33331Z" stroke="#344054" stroke-width="1.5" stroke-linecap="round" stroke-linejoin="round"/>
</g>
<defs>
<clipPath id="clip0_545_640">
<rect width="16" height="16" fill="white"/>
</clipPath>
</defs>
</svg>
